<svg xmlns="http://www.w3.org/2000/svg" xml:space="preserve" viewBox="0 0 381 381">
  <path d="M149.7 0a36 36 0 0 0-10.5 1.2c-10.3 2.7-12.5 8.7-7.2 19.3 2 3.8 2.1 4.3 1.6 4.8-1 1-2.5.3-6.6-2.9-9.7-7.5-18.9-9.7-33-8-16.7 2.1-29 9.6-30.5 18.8-1.6 9.2 5 26.2 15 38.6 6.1 7.6 11.5 10 23.7 10.4 5 .2 5.5.3 6 .8 2 2-4.5 4.9-12.2 5.4-10.7.6-12.6 8.8-4.6 20 17 23.7 37 26.9 56.3 8.8 2.3-2.1 2.3-2.1 2.7-1.5l1.6 2.8c6.3 10.9 19.2 9.6 28.6-2.9 5.1-6.8 7-13.5 5.5-21l-.2-1 3.3 1.4a97.5 97.5 0 0 0 37.3 7l-1.2 1.6a98 98 0 0 0-14 27.6l-.6 2.1 2 1.2a56 56 0 0 1 7.1 5.6l.7.6 1.9-1.6c1-1 2.5-2.1 3.3-2.7 1.4-1 1.6-1.2 2.1-2.9 6.3-19.7 24.8-39.4 50.3-53.8A221 221 0 0 1 300.7 69a8.3 8.3 0 0 0 3.3-13c-2.6-2.9-6-3.5-10.4-1.7a176 176 0 0 0-52.4 32c-3.5 3-2.7 2.8-10.7 3.2a85.8 85.8 0 0 1-37.7-6.1l-1.6-.7 2.3-1.5c7.5-5 11.3-12.3 11.3-21.6 0-10-4.3-17.7-10.3-18.4-2-.3-3.4.5-6.6 3.9-3 3-3.6 3.3-4 2.2-.4-.8-.2-1.6 1.2-5 3.6-8.6.9-19-7.5-29a38.6 38.6 0 0 0-28-13.2zm39 137.8a35.3 35.3 0 0 0-35.4 35.6 35 35 0 0 0 32.4 35.4c9.4.8 19.7-2.7 26.9-9.1l1.5-1.4-1.2-2.1c-8.3-14.3-8-32.3.7-46.8l.6-1-1.5-1.3a35.8 35.8 0 0 0-24-9.3zm65 .1a35.5 35.5 0 0 0-5.4 70.9 35.5 35.5 0 1 0 5.4-70.8zm-61.5 14.4c.8 0 1.5.6 1.6 1.4.4 2.3.5 4.8-.3 7l1.9.5c3 1 4.7 3.5 5.7 5.9a1.8 1.8 0 0 1-1.8 2.4c-2.4-.3-3.9 2.3-3.9 4.4 0 2 1.6 4.7 4 4.3a1.8 1.8 0 0 1 1.9 2.3c-1.6 4.6-4.8 9-8.5 11.2-1 .6-2.2.7-3.2.5-.8-.2-1.5-.6-2.3-1-1-.6-1.7-1-2.4-1s-1.4.4-2.4 1c-.8.4-1.5.8-2.3 1-1 .2-2.1.1-3.2-.5a20 20 0 0 1-6.8-7.5 19 19 0 0 1-1.5-17.1 10 10 0 0 1 5.8-6c3.4-1.1 6 .2 7.7 1.3 0-1.6.3-4 1.5-5.8 1.8-2.5 5.2-3.8 8.1-4.3a1.8 1.8 0 0 1 .4 0zm47.7 2.8H270a1.5 1.5 0 0 1 1.5 1.7l-.8 6.7a1.5 1.5 0 0 1-1.5 1.4H239a1.5 1.5 0 0 1-1.5-1.7l.8-6.8a1.5 1.5 0 0 1 1.5-1.3zm-1.8 14.4h30a1.5 1.5 0 0 1 1.6 1.7l-.7 5.8a1.5 1.5 0 0 1-1.5 1.3h-17a1.5 1.5 0 0 0-1.5 1.3l-.2 1.4a1.5 1.5 0 0 0 1.5 1.7h16.4a1.5 1.5 0 0 1 1.5 1.7l-.7 6.4a1.5 1.5 0 0 1-1.5 1.3h-30a1.5 1.5 0 0 1-1.5-1.7l2.2-19.5a1.5 1.5 0 0 1 1.5-1.4zm52.7 29c-.5 0-.7.4-1.1 1a46.5 46.5 0 0 1-26.1 18.1l.5 2.3a45.8 45.8 0 0 1-5.2 37.4l-1.2 1.9 1 .8c4.2 3.8 9.7 6.4 16.5 7.8 3.8.8 14.3.5 15.7-.4l2.4-1a35.7 35.7 0 0 0-2.5-68zm-140.6 0-.8.1-1.7.5a35.6 35.6 0 1 0 34.4 60.9l1-1-1-1.6a46.4 46.4 0 0 1-4.8-39.5c0-.2-1.4-.8-3-1.4a48 48 0 0 1-21.9-15.6c-1.1-1.6-1.5-2.2-2.2-2.3zm70.2 7.5-1.1 1a44.8 44.8 0 0 1-27.8 11.7c-4.3.2-3.9 0-5 3.8a35.8 35.8 0 0 0 27.7 45.4 35.7 35.7 0 0 0 40-46.2l-.8-2.5-4-.4c-11-.8-18.9-4.2-28-12l-1-.8zm54.2 10.9h9.6v13a9.8 9.8 0 0 1 3.5-.8h7.2c6 0 9.8 3 9.8 10.3v17.4h-9.6v-16a2.6 2.6 0 0 0-2.6-2.6h-5.7a2.7 2.7 0 0 0-2.6 2.8v16h-9.6v-40zm-122.4.7h1c2.6 0 5.7.7 7.8 2.6 2.5 2.3 2.2 5.3 2.2 8.7v8c0 2.3 1 3.4 2 4.6.2.5.3 1-.2 1.4l-3.9 3.3c-.3.3-.8.3-1.2.1-1.7-1.4-2-2-2.9-3.4a11 11 0 0 1-4.8 3.3 14.4 14.4 0 0 1-3.6.4c-4.2 0-7.6-2.6-7.6-7.8 0-4.2 2.2-7 5.5-8.3 1.7-.8 3.7-1.2 5.7-1.4l3.8-.4v-.7c0-1.2.1-2.6-.6-3.7a3.5 3.5 0 0 0-2.8-1.3h-.4c-1.8.2-3.3 1.1-3.8 3 0 .5-.3 1-.9 1l-4.9-.6c-.3 0-.9-.3-.7-1 1-5.6 5.8-7.5 10.3-7.8zm82.5 2.6a2 2 0 0 1 2 2v2h2a2 2 0 0 1 2 2 2 2 0 0 1-2 2h-2v2a2 2 0 0 1-2 2 2 2 0 0 1-2-2v-2h-2a2 2 0 0 1-2-2 2 2 0 0 1 2-2h2v-2a2 2 0 0 1 2-2zm-26.3 5.6c2.2 0 4.7.1 7.3.6a24 24 0 0 1 10.3 4.2 17 17 0 0 1 6.5 10.7c.6 3.4 0 6.4-1.6 8.6a13 13 0 0 1-6.2 4.6c-3 1.2-6.1 1.6-9 1.5l.3 1.8a2 2 0 0 1-1.6 2.3 2 2 0 0 1-2.3-1.6l-.5-3h-.6c-6.4-1.9-10.3-6.2-10.3-11.2 0-2.1 1-4 2.5-5.4 1.4-1.3 3.2-2.2 5.2-2.7l-.3-1.7a2 2 0 0 1 1.6-2.3 2 2 0 0 1 2.3 1.6l.3 1.8c3.3 0 6.7.8 9.6 3a2 2 0 0 1 .4 2.8 2 2 0 0 1-2.8.4c-1.9-1.4-4.2-2-6.5-2.1l2 12.2c2.6.1 5.7-.1 8.3-1.1a9.1 9.1 0 0 0 4.3-3.1c1-1.4 1.4-3 1-5.6-.8-4-2.6-6.5-5-8.3a20.2 20.2 0 0 0-8.6-3.5c-6.1-1-12-.2-12-.2a2 2 0 0 1-2.3-1.6 2 2 0 0 1 1.7-2.3s1.6-.3 4-.4a47 47 0 0 1 2 0zm-52.4 7c-1.3 0-2.6 0-3.8.3-2.1.7-3.8 2-3.8 4.8 0 2.2 1.2 3.7 3.1 3.7h.7a4.5 4.5 0 0 0 2.9-2.4c1-1.7 1-3.3 1-5.4v-1zm53 7.4a9 9 0 0 0-3.1 1.6c-.8.8-1.2 1.6-1.2 2.5 0 2.7 1.9 5.2 6.2 6.8l-1.9-11zm-38.2 5.6c.9 0 1.7.1 2.2.3l.6.4c.2.3.3.6.3 1v.3a9 9 0 0 1-2.6 6.1 1.1 1.1 0 0 1-.8.3.8.8 0 0 1-.6-.2 1 1 0 0 1-.2-.6v-.4l.8-2 .4-2v-.3a.6.6 0 0 0-.3 0l-1-.1H168l-1.5.3h-.2a1 1 0 0 1-.6-.2.8.8 0 0 1-.3-.6c0-.4.2-.7.5-.9a7.2 7.2 0 0 1 1.4-.8l.4-.1.8-.3a10.2 10.2 0 0 1 2.3-.2zm-36 1.5a35.6 35.6 0 0 0 18 6.2h.4c4.2 0 8.7-1.1 13-2.8l.4-.2.3-.1.6-.3.6-.1c.6 0 1.2.4 1.3 1.1 0 .4-.3.8-.6 1l-1.6 1.1a29.6 29.6 0 0 1-14.3 4.4h-.5c-7.4 0-13-4.1-18-8.5a1 1 0 0 1-.5-.8.9.9 0 0 1 .3-.7 1 1 0 0 1 .7-.3zm55 19.4-2.3 1.8a44 44 0 0 1-27 9.8l-4 .1-1 2.2a35.6 35.6 0 0 0 27 48.4c2.7.5 11 .4 13.6-.2 6.5-1.7 12-4.5 16.2-8.4l1.6-1.5-.9-1.6a46.1 46.1 0 0 1-3.3-39.8c0-.1-1.6-.8-3.6-1.4a48.6 48.6 0 0 1-15.4-8.7l-1-.7zm61.3 0-2.5 2c-7.4 5.8-16 9-25.3 9.6l-3 .2-.6 1.2A36.6 36.6 0 0 0 218 304c4 13.5 16.5 24 30.3 25.3a35.4 35.4 0 0 0 34-49.7l-.5-1.2-3-.2a44.8 44.8 0 0 1-25.3-9.6l-2.5-2zm-76.4 14.7h6.3a1 1 0 0 1 1 .6l7.7 18v-17.6a1 1 0 0 1 1-1h6a1 1 0 0 1 1 1v35a1 1 0 0 1-1 1h-6.4a1 1 0 0 1-.9-.6l-7.7-17.9v17.5a1 1 0 0 1-1 1h-6a1 1 0 0 1-1-1v-35a1 1 0 0 1 1-1zm88.6 9.6a8.2 8.2 0 0 1 8.2 8.2c0 4.5-3.7 8.3-8.2 8.3a8.2 8.2 0 0 1-7.4-4.6c0 2-2 4.5-4.8 4.5h-7v-16.1h7.5c2.3 0 4.3 2.4 4.3 4.4a8.1 8.1 0 0 1 7.4-4.7zm-31.8.3h4.5v6h2.9v-6h4.3v16.1H239v-6.3h-3v6.3h-4.5v-16.1zm16.8 3.6v2.7h2.2c.7 0 1.2-.6 1.2-1.4 0-.7-.5-1.3-1.2-1.3h-2.2zm14.4.2a4.1 4.1 0 0 0-3.5 4.1 4.1 4.1 0 0 0 8.2 0 4.1 4.1 0 0 0-4.7-4zm.6.9a3.2 3.2 0 1 1 0 6.4 3.2 3.2 0 0 1 0-6.4zm-8.2 2.2c-.3.4-1.1 1-1.6 1 .5 0 1.3.7 1.7 1.2-.2-.4-.2-1.7 0-2.2zm-6.8 2.7v2.7h2.2c.7 0 1.2-.6 1.2-1.3 0-.7-.5-1.4-1.2-1.4h-2.2zm-28 25.8-1.2 1c-9 7.8-19 11.7-30.4 11.8h-3.4l-.2 1.3a35.8 35.8 0 0 0 30.7 40 35.9 35.9 0 0 0 39.4-28.1c.5-2 .8-9.6.5-11.6l-.2-1.5h-3.8c-10.9-.2-21-4-29.3-11.1l-2-1.8zm0 16.7c6.7 0 13.3.2 15.2.5 1.2.3 2.4 1 3 1.9 2.5 3.7 2.7 20.7-.3 23.7a5.2 5.2 0 0 1-2.8 1.4c-11.7.9-27.2.5-30.2-.1a5 5 0 0 1-2.7-1.4c-.6-.5-1-1.4-1.3-2.5-.8-2.6-1.8-18.6 1.4-21.6a5.3 5.3 0 0 1 2.7-1.4c1.8-.3 8.4-.5 15-.5zm-4 8v11.2l10.8-5.6c-3.7-2-6.7-3.8-10.7-5.6z"/>
</svg>
