<svg width="1440" height="1440" viewBox="0 0 381 381" version="1.1" xml:space="preserve" xmlns="http://www.w3.org/2000/svg">
    <g transform="translate(85.594 42)">
        <path d="M64.075-41.968c-3.535-.118-7.07.256-10.466 1.164-10.261 2.746-12.48 8.719-7.174 19.31 1.919 3.828 2.07 4.305 1.533 4.841-.925.926-2.5.225-6.586-2.929-9.715-7.499-18.846-9.71-32.917-7.974-16.754 2.067-28.994 9.572-30.58 18.75C-23.704.4-17.087 17.42-7.092 29.833-.994 37.41 4.36 39.76 16.61 40.235c5.053.197 5.543.258 6.047.763 1.981 1.981-4.597 4.87-12.21 5.36-10.692.69-12.613 8.888-4.68 19.964 17.057 23.813 37.089 26.982 56.33 8.911 2.29-2.15 2.303-2.159 2.676-1.555.206.333.956 1.613 1.667 2.842 6.28 10.86 19.212 9.555 28.57-2.884 5.146-6.84 6.917-13.567 5.524-20.989l-.182-.968 3.27 1.323c10.562 4.275 23.57 6.863 34.504 6.863 1.52 0 2.763.058 2.763.129 0 .07-.52.815-1.155 1.653-5.572 7.35-11.24 18.482-14.004 27.508l-.666 2.171 1.951 1.216c2.203 1.373 6.278 4.479 7.228 5.51l.63.682 1.9-1.657c1.046-.912 2.562-2.12 3.37-2.684 1.353-.945 1.515-1.172 2.07-2.894 6.342-19.717 24.754-39.415 50.27-53.782 6.147-3.462 17.695-8.98 22.622-10.81 5.117-1.9 6.863-8.846 3.254-12.946-2.582-2.932-6.04-3.522-10.398-1.773-19.872 7.978-38.467 19.326-52.4 31.98-3.41 3.098-2.66 2.87-10.703 3.26-13.683.663-25.743-1.311-37.662-6.166l-1.546-.63 2.242-1.492c7.481-4.978 11.335-12.327 11.326-21.598-.01-10.071-4.296-17.732-10.32-18.446-2.079-.246-3.404.533-6.633 3.898-2.894 3.016-3.511 3.355-4.03 2.217-.369-.81-.175-1.589 1.23-4.943 3.619-8.633.925-19.126-7.47-29.107-6.73-7.999-17.317-12.775-27.92-13.129zm38.942 137.73c-18.24.085-35.295 14.326-35.281 35.672.012 18.778 13.564 33.548 32.408 35.32 9.377.881 19.706-2.604 26.826-9.05l1.56-1.413-1.242-2.137c-8.264-14.223-8-32.279.685-46.76l.613-1.022-1.455-1.292c-7.288-6.472-15.824-9.358-24.114-9.319zm65.124.182c-27.12-1.043-45.265 27.218-33.062 51.498 5.316 10.576 15.66 17.8 27.667 19.317 16.18 2.045 32.584-8.423 37.753-24.09 7.438-22.55-8.674-45.816-32.358-46.725zm-61.566 14.343c.796.032 1.49.606 1.649 1.416.345 2.337.44 4.775-.315 7.047.59.066 1.212.206 1.868.44 2.99 1.067 4.765 3.463 5.77 5.9a1.754 1.754 0 0 1-1.841 2.409c-2.387-.3-3.86 2.288-3.86 4.364 0 2.095 1.511 4.712 3.92 4.357a1.755 1.755 0 0 1 1.91 2.321c-1.612 4.547-4.756 8.932-8.44 11.134-1.099.656-2.195.723-3.193.483-.815-.196-1.557-.595-2.287-.995-1.037-.568-1.704-.897-2.437-.897-.734 0-1.401.329-2.438.897-.73.4-1.472.8-2.287.995-.998.24-2.095.173-3.194-.483-2.7-1.614-5.086-4.387-6.792-7.479-1.71-3.1-2.834-6.697-2.834-10.081 0-1.982.322-4.621 1.324-7.043 1.005-2.43 2.778-4.817 5.762-5.882 3.46-1.234 5.979.143 7.72 1.244.022-1.67.302-3.975 1.574-5.791 1.76-2.515 5.115-3.869 8.075-4.336a1.76 1.76 0 0 1 .346-.02zm47.755 2.81h30.102a1.5 1.5 0 0 1 1.49 1.684l-.837 6.757a1.5 1.5 0 0 1-1.489 1.316h-30.102a1.5 1.5 0 0 1-1.489-1.685l.837-6.756a1.5 1.5 0 0 1 1.488-1.316zm-1.857 14.423h30.107a1.5 1.5 0 0 1 1.49 1.665l-.64 5.78a1.5 1.5 0 0 1-1.49 1.335H164.93a1.5 1.5 0 0 0-1.485 1.289l-.197 1.39a1.5 1.5 0 0 0 1.484 1.711h16.388a1.5 1.5 0 0 1 1.49 1.665l-.709 6.407a1.5 1.5 0 0 1-1.49 1.335h-30.107a1.5 1.5 0 0 1-1.49-1.665l2.167-19.576a1.5 1.5 0 0 1 1.49-1.336zm52.73 28.993c-.473.056-.712.39-1.133 1.051-4.53 7.102-14.018 14.144-22.964 17.043-1.673.543-3.076 1.006-3.118 1.03-.041.025.214 1.043.566 2.263 3.697 12.79 1.742 26.773-5.231 37.408l-1.214 1.852.993.883c4.228 3.762 9.687 6.325 16.47 7.732 3.837.796 14.306.538 15.743-.387.291-.188 1.354-.605 2.36-.929 10.112-3.25 18.773-11.944 22.25-22.335 6.19-18.502-3.872-38.903-22.192-44.995-1.354-.45-2.059-.672-2.53-.616zm-140.626.059c-.228-.038-.482-.016-.795.053-.417.093-.94.27-1.642.504-6.892 2.292-13.951 7.69-17.952 13.728-14.366 21.684-2.054 50.45 23.544 55.006 9.804 1.745 21.372-1.417 28.815-7.876l1.033-.897-1.115-1.685c-6.81-10.286-8.944-24.82-5.433-36.996.355-1.23.645-2.382.645-2.558 0-.176-1.34-.764-2.977-1.308-8.434-2.801-17.034-8.964-21.894-15.69-1.095-1.515-1.545-2.167-2.229-2.281zm70.217 7.438-1.12 1.078c-6.931 6.673-17.728 11.195-27.79 11.64-4.238.189-3.868-.09-5.043 3.787-6.125 20.214 7.026 41.71 27.745 45.353 26.427 4.647 48.322-20.61 40.028-46.174l-.824-2.541-3.991-.311c-10.93-.851-18.878-4.252-28.008-11.987l-.997-.845zm54.213 10.845h9.624v12.955a9.839 9.839 0 0 1 3.43-.677h5.993l1.266.041c6.065 0 9.805 2.909 9.805 10.24v17.339h-9.605V198.81a2.647 2.647 0 0 0-2.643-2.592h-5.635a2.685 2.685 0 0 0-2.599 2.826v15.81h-9.636v-40zm-122.372.736h1.063c2.485 0 5.658.704 7.69 2.564 2.47 2.298 2.204 5.377 2.204 8.738v7.94c0 2.392.97 3.455 1.939 4.69.266.437.343.969-.094 1.328-.97.891-2.83 2.47-3.892 3.36-.344.267-.797.267-1.235.095-1.673-1.423-1.938-2.032-2.907-3.36-1.673 1.766-3.08 2.734-4.768 3.266a14.354 14.354 0 0 1-3.61.438c-4.237 0-7.598-2.657-7.598-7.863 0-4.157 2.204-6.971 5.471-8.3 1.673-.797 3.705-1.157 5.737-1.422 1.329-.172 2.657-.25 3.798-.344v-.703c0-1.235.079-2.642-.625-3.705-.625-.891-1.766-1.329-2.829-1.329h-.36c-1.766.172-3.36 1.157-3.798 3.095-.078.438-.344.875-.875.97l-4.94-.626c-.344-.094-.875-.36-.703-1.063 1.063-5.564 5.83-7.503 10.332-7.769zm82.453 2.577a2 2 0 0 1 2 2v2h2a2 2 0 0 1 2 2 2 2 0 0 1-2 2h-2v2a2 2 0 0 1-2 2 2 2 0 0 1-2-2v-2h-2a2 2 0 0 1-2-2 2 2 0 0 1 2-2h2v-2a2 2 0 0 1 2-2zm-26.237 5.605c2.147-.003 4.68.144 7.29.62 3.48.633 7.156 1.851 10.262 4.205 3.105 2.353 5.578 5.903 6.472 10.745a2 2 0 0 0 0 .001 2 2 0 0 0 0 .001c.622 3.383-.023 6.341-1.543 8.563-1.52 2.222-3.782 3.675-6.187 4.61-2.985 1.158-6.162 1.539-9.013 1.474l.307 1.846a2 2 0 0 1-1.642 2.303 2 2 0 0 1-2.303-1.645l-.496-2.975c-.184-.044-.413-.058-.588-.107-6.36-1.776-10.322-6.107-10.322-11.127 0-2.134 1.01-4.039 2.473-5.404 1.403-1.311 3.221-2.19 5.211-2.718l-.278-1.669a2 2 0 0 1 1.644-2.3 2 2 0 0 1 2.302 1.642l.3 1.8c3.24-.05 6.65.793 9.534 2.918a2 2 0 0 1 .423 2.797 2 2 0 0 1-2.797.424c-1.893-1.395-4.228-2.01-6.486-2.094l2.04 12.247c2.512.117 5.672-.144 8.241-1.141 1.883-.731 3.41-1.787 4.334-3.138.925-1.352 1.379-3.035.91-5.583l.002.002c-.725-3.927-2.54-6.453-4.955-8.283-2.414-1.83-5.492-2.9-8.562-3.459-6.14-1.118-12.016-.188-12.016-.188a2 2 0 0 1-2.295-1.652 2 2 0 0 1 1.653-2.295s1.604-.266 4.078-.375a46.927 46.927 0 0 1 2.007-.045zm-52.418 7.012c-1.328 0-2.657.094-3.798.36-2.126.609-3.798 1.938-3.798 4.767 0 2.204 1.156 3.705 3.095 3.705.265 0 .531-.094.703-.094 1.157-.266 2.204-1.063 2.83-2.298 1.062-1.766.968-3.345.968-5.377v-1.063zm53.005 7.373c-1.292.4-2.419.97-3.145 1.648-.832.778-1.205 1.554-1.205 2.48 0 2.709 1.911 5.24 6.17 6.787l-1.82-10.915zm-38.28 5.663c.953 0 1.75.125 2.298.328.187.078.36.157.531.344l.016.031.015.032c.172.266.266.578.282 1l.015.235c-.031 1.578-.703 4.392-2.657 6.143a1.13 1.13 0 0 1-.735.281h-.015a.848.848 0 0 1-.594-.234.914.914 0 0 1-.25-.625c0-.141.031-.266.078-.391.187-.516.484-1.282.719-2.048.25-.766.422-1.547.422-1.97 0-.109 0-.187-.016-.219 0 0-.015-.015-.031-.015a.577.577 0 0 0-.234-.078c-.219-.063-.548-.078-.907-.078-.5 0-1.094.046-1.641.109-.641.094-1.188.14-1.564.22h-.062c-.031.015-.078.015-.125.015a.912.912 0 0 1-.594-.204.85.85 0 0 1-.297-.625c.016-.406.234-.672.5-.875a7.222 7.222 0 0 1 1.407-.782v-.016l.437-.14h.017l.765-.25v.047a10.22 10.22 0 0 1 2.22-.235zm-35.873 1.5c.187 0 .375.064.562.157 5.409 2.986 10.755 6.034 17.32 6.034h.453c4.173-.078 8.675-1.11 12.974-2.845l.39-.156.298-.125c.203-.078.422-.173.64-.266.188-.094.391-.14.594-.14.625 0 1.204.468 1.266 1.156 0 .39-.234.766-.547 1-.515.406-1.063.782-1.61 1.11l-.03.016c-4.174 2.61-9.551 4.22-14.303 4.33h-.438c-7.472-.016-13.037-4.096-18.101-8.504-.25-.203-.422-.5-.422-.828a.854.854 0 0 1 .281-.673.987.987 0 0 1 .673-.265zm54.879 19.356-2.253 1.797c-7.82 6.242-16.567 9.423-26.925 9.793l-4.122.147-.867 2.214c-8.308 21.224 4.473 44.261 26.84 48.375 2.813.518 11.145.368 13.625-.244 6.53-1.613 12.086-4.478 16.254-8.38l1.588-1.486-.868-1.557c-6.64-11.908-8.145-25.154-4.212-37.085.466-1.414.85-2.663.856-2.776.004-.114-1.585-.74-3.532-1.391-5.508-1.844-10.281-4.52-15.461-8.668l-.923-.74zm61.332.036-2.537 1.983c-7.394 5.78-16.008 9.056-25.234 9.599l-3.053.179-.58 1.19c-3.242 6.674-3.857 16.467-1.536 24.475 3.914 13.506 16.431 23.932 30.294 25.233 15.294 1.435 31.106-9.777 35.585-25.233 2.32-8.008 1.706-17.801-1.537-24.474l-.578-1.191-3.053-.18c-9.226-.542-17.841-3.819-25.235-9.598l-2.536-1.983zM89.08 239.42h6.343a1 1 0 0 1 .918.603l7.739 17.896v-17.5a1 1 0 0 1 1-1h6a1 1 0 0 1 1 1v35a1 1 0 0 1-1 1h-6.343a1 1 0 0 1-.918-.603l-7.74-17.896v17.5a1 1 0 0 1-1 1h-6a1 1 0 0 1-1-1v-35a1 1 0 0 1 1-1zm88.632 9.585a8.15 8.15 0 0 1 8.192 8.2c0 4.518-3.675 8.27-8.192 8.273l.001-.001c-4.511.003-6.736-3.287-7.378-4.6-.003 2.088-2.003 4.521-4.813 4.521l-6.968-.001v-16.123h7.471c2.322.003 4.305 2.378 4.3 4.39.57-1.34 2.875-4.662 7.387-4.659zm-31.808.27h4.513v6h2.843v-6h4.38v16.127h-4.38v-6.257h-2.843v6.257h-4.496l-.017-16.127zm16.825 3.589v2.725h2.216c.645 0 1.154-.637 1.154-1.364 0-.725-.509-1.361-1.154-1.361h-2.216zm14.402.283a4.103 4.103 0 0 0-3.52 4.062 4.104 4.104 0 0 0 8.208 0 4.103 4.103 0 0 0-4.688-4.062zm.585.835a3.227 3.227 0 1 1 0 6.453 3.227 3.227 0 0 1 0-6.453zm-8.167 2.21c-.299.371-1.145.952-1.654 1.017.517.065 1.323.71 1.663 1.233-.123-.46-.114-1.79-.01-2.25zm-6.828 2.727v2.723h2.216c.645 0 1.153-.637 1.153-1.362 0-.725-.508-1.361-1.153-1.361h-2.216zm-27.96 25.79-1.236 1.073c-8.926 7.755-19.081 11.657-30.381 11.672l-3.481.005-.192 1.39c-2.638 19.11 11.338 37.26 30.702 39.87 18.167 2.449 35.262-9.698 39.448-28.03.471-2.061.768-9.606.458-11.625l-.22-1.437-3.704-.06c-10.91-.173-21.026-3.998-29.322-11.089l-2.072-1.77zm.012 16.71c6.633 0 13.267.174 15.1.522 1.247.234 2.418.938 3.106 1.844 2.386 3.757 2.59 20.703-.39 23.683a5.243 5.243 0 0 1-2.78 1.422c-11.676.88-27.225.53-30.243-.094-1.078-.217-2.017-.702-2.702-1.406-.532-.533-.954-1.344-1.281-2.47-.777-2.598-1.787-18.642 1.437-21.634a5.318 5.318 0 0 1 2.655-1.345c1.832-.349 8.465-.522 15.098-.522zm-4 7.948v11.223c3.985-2.042 7.71-3.915 10.72-5.584-3.65-1.953-6.735-3.764-10.72-5.639z"/>
    </g>
</svg>
