<?xml version="1.0" encoding="UTF-8" standalone="no"?>
<!-- Created with Inkscape (http://www.inkscape.org/) -->

<svg
   width="381mm"
   height="381mm"
   viewBox="0 0 381 381"
   version="1.1"
   id="svg1"
   xml:space="preserve"
   inkscape:version="1.3.2 (091e20e, 2023-11-25, custom)"
   sodipodi:docname="grape.svg"
   xmlns:inkscape="http://www.inkscape.org/namespaces/inkscape"
   xmlns:sodipodi="http://sodipodi.sourceforge.net/DTD/sodipodi-0.dtd"
   xmlns="http://www.w3.org/2000/svg"
   xmlns:svg="http://www.w3.org/2000/svg"><sodipodi:namedview
     id="namedview1"
     pagecolor="#ffffff"
     bordercolor="#000000"
     borderopacity="0.25"
     inkscape:showpageshadow="2"
     inkscape:pageopacity="0.0"
     inkscape:pagecheckerboard="0"
     inkscape:deskcolor="#d1d1d1"
     inkscape:document-units="mm"
     inkscape:zoom="0.51892186"
     inkscape:cx="343.01889"
     inkscape:cy="872.00027"
     inkscape:window-width="2560"
     inkscape:window-height="1369"
     inkscape:window-x="-8"
     inkscape:window-y="-8"
     inkscape:window-maximized="1"
     inkscape:current-layer="layer1" /><defs
     id="defs1" /><g
     inkscape:label="Layer 1"
     inkscape:groupmode="layer"
     id="layer1"
     transform="translate(85.593994,42)"><path
       style="fill:#000000"
       d="M 130.17371,338.71994 C 110.81012,336.10978 96.834468,317.9603 99.472268,298.84948 l 0.191727,-1.38906 3.480905,-0.005 c 11.30018,-0.0157 21.45449,-3.91706 30.38139,-11.67265 l 1.23591,-1.07375 2.07138,1.77033 c 8.29632,7.0905 18.41156,10.91602 29.32236,11.08952 l 3.70305,0.0589 0.22088,1.43761 c 0.31018,2.01879 0.0133,9.56291 -0.45744,11.62406 -4.1869,18.33265 -21.2815,30.47924 -39.44872,28.03036 z m 32.67605,-51.34806 c -13.86243,-1.30065 -26.37964,-11.72691 -30.2938,-25.23334 -2.32055,-8.00741 -1.70546,-17.80078 1.53713,-24.47396 l 0.57854,-1.19062 3.05294,-0.17943 c 9.22601,-0.54224 17.84051,-3.81907 25.23426,-9.59874 l 2.53676,-1.98298 2.53676,1.98298 c 7.39375,5.77967 16.00825,9.0565 25.23425,9.59874 l 3.05295,0.17943 0.57854,1.19062 c 3.24259,6.67318 3.85768,16.46655 1.53713,24.47396 -4.47923,15.45627 -20.29113,26.66835 -35.58546,25.23334 z M 96.836214,287.00297 C 74.469689,282.88881 61.688375,259.85186 69.996995,238.62815 l 0.866839,-2.21427 4.122648,-0.147 c 10.357781,-0.36932 19.104295,-3.55045 26.925048,-9.79269 l 2.25227,-1.79768 0.92331,0.73935 c 5.17997,4.1479 9.95297,6.82376 15.46127,8.66793 1.94696,0.65184 3.53608,1.27769 3.53138,1.39079 -0.005,0.11309 -0.38996,1.36263 -0.85614,2.77675 -3.93311,11.93073 -2.42842,25.17691 4.21265,37.08503 l 0.86785,1.55615 -1.58786,1.48656 c -4.16839,3.90244 -9.72422,6.76663 -16.254,8.37943 -2.48022,0.61259 -10.812109,0.76208 -13.626046,0.24447 z M 67.732048,225.86321 c -25.598746,-4.55708 -37.910615,-33.32166 -23.543736,-55.00592 4.000572,-6.03815 11.059866,-11.43661 17.951441,-13.728 2.813128,-0.93534 2.719018,-0.97012 4.666253,1.72437 4.860458,6.72566 13.45958,12.88762 21.894271,15.689 1.637109,0.54372 2.976562,1.13272 2.976562,1.30888 0,0.17616 -0.290328,1.32718 -0.645174,2.55782 -3.511005,12.17647 -1.376779,26.70932 5.432998,36.99558 l 1.115613,1.68515 -1.033489,0.89696 c -7.442454,6.45927 -19.011055,9.6214 -28.814739,7.87616 z m 60.854162,0.005 c -20.71973,-3.64324 -33.869957,-25.13917 -27.74504,-45.35325 1.17457,-3.87642 0.80444,-3.59854 5.04323,-3.78634 10.06199,-0.44578 20.85857,-4.96822 27.79012,-11.64063 l 1.11955,-1.0777 0.99712,0.84467 c 9.13032,7.73452 17.07794,11.13609 28.00717,11.98703 l 3.99131,0.31075 0.82437,2.54101 c 8.29377,25.56444 -13.60089,50.82122 -40.02783,46.17446 z m 60.98646,-0.093 c -6.78406,-1.40719 -12.24252,-3.96954 -16.47107,-7.73198 l -0.99296,-0.8835 1.21436,-1.85208 c 6.97272,-10.63445 8.92813,-24.61763 5.23109,-37.40748 -0.3526,-1.21985 -0.60728,-2.23789 -0.56595,-2.26231 0.0413,-0.0244 1.44438,-0.48814 3.11787,-1.03047 8.94627,-2.89923 18.43429,-9.94088 22.96421,-17.04315 0.84296,-1.32164 0.95469,-1.3349 3.66246,-0.43459 18.32036,6.09138 28.38243,26.49225 22.19194,44.99421 -3.47661,10.39078 -12.138,19.08557 -22.2494,22.3352 -1.00687,0.32359 -2.0688,0.7416 -2.35984,0.92892 -1.43783,0.9254 -11.90676,1.18291 -15.74271,0.38723 z M 100.14351,166.75361 C 81.299914,164.98219 67.747456,150.21234 67.735435,131.43437 67.715558,100.38441 103.80914,84.369137 127.13101,105.07966 l 1.4552,1.29227 -0.61285,1.02185 c -8.68505,14.48117 -8.94965,32.53709 -0.68524,46.76057 l 1.24171,2.13705 -1.55931,1.41186 c -7.1209,6.44756 -17.44922,9.93191 -26.82701,9.05035 z m 62.60274,0.005 c -12.00697,-1.51753 -22.35156,-8.73997 -27.66737,-19.31693 -12.20268,-24.27989 5.94088,-52.540306 33.06254,-51.498249 23.68371,0.909965 39.79562,24.176079 32.35734,46.725029 -5.16828,15.6675 -21.57244,26.13512 -37.75251,24.09015 z M 134.24338,98.051211 c -0.95064,-1.030429 -5.02539,-4.135965 -7.2282,-5.508916 l -1.95074,-1.215843 0.66515,-2.171039 c 2.76535,-9.025956 8.43239,-20.157433 14.00427,-27.507847 0.63551,-0.83837 1.15548,-1.58251 1.15548,-1.653646 0,-0.07114 -1.24367,-0.129337 -2.76371,-0.129337 -10.93344,0 -23.9418,-2.587203 -34.5043,-6.862482 l -3.26905,-1.323182 0.18171,0.968606 c 1.3924,7.422121 -0.37783,14.14842 -5.523847,20.988823 -9.35764,12.438756 -22.290745,13.743959 -28.570597,2.883331 -0.710876,-1.229417 -1.461081,-2.50826 -1.667121,-2.841873 -0.37274,-0.603526 -0.386166,-0.595723 -2.676248,1.555179 C 42.855534,93.304284 22.824404,90.135514 5.7673457,66.322199 -2.1666109,55.245623 -0.24533472,47.048398 10.446462,46.358505 18.059717,45.867256 24.637997,42.978981 22.656537,40.997522 22.152316,40.4933 21.662968,40.431619 16.609567,40.235313 4.3595487,39.759444 -0.99433503,37.410156 -7.0935326,29.834375 -17.088682,17.419454 -23.704042,0.40118319 -22.114061,-8.8065154 -20.529326,-17.983831 -8.2893221,-25.488905 8.4653809,-27.556587 c 14.0708151,-1.736467 23.2014171,0.475634 32.9166861,7.974831 4.086204,3.154134 5.660271,3.854174 6.585606,2.928839 0.536698,-0.536698 0.385906,-1.013109 -1.53253,-4.841875 -5.306627,-10.590831 -3.087891,-16.562991 7.173603,-19.309147 13.58271,-3.634972 29.414338,1.299767 38.385519,11.964816 8.396225,9.981538 11.089435,20.4741725 7.471194,29.10746184 -1.405762,3.35421096 -1.599307,4.13207936 -1.229866,4.94291366 0.518428,1.1378263 1.135561,0.7981734 4.029637,-2.217803 3.22908,-3.36508966 4.55384,-4.1435268 6.63254,-3.89733514 6.02368,0.71341582 10.30986,8.37475604 10.31982,18.44618064 0.009,9.271124 -3.84446,16.620058 -11.3254,21.597702 l -2.2423,1.491975 1.54629,0.629859 c 11.91945,4.855226 23.97866,6.829559 37.66191,6.166006 8.04331,-0.390051 7.29234,-0.161394 10.70281,-3.258837 13.93384,-12.654928 32.52809,-24.00319 52.40031,-31.980464 4.35819,-1.749498 7.81606,-1.159867 10.39767,1.772992 3.60887,4.0999 1.86313,11.045671 -3.25392,12.946347 -4.9267,1.829972 -16.47468,7.347652 -22.62187,10.808831 -25.51667,14.367188 -43.92823,34.064589 -50.27102,53.781898 -0.55392,1.721936 -0.71613,1.948821 -2.06924,2.894396 -0.80751,0.5643 -2.32346,1.771915 -3.36878,2.683588 l -1.90058,1.657588 z"
       id="path1" /><g
       style="fill:#ffffff"
       id="g1"
       transform="matrix(0.15631106,0,0,0.15631106,34.685068,129.80801)"
       inkscape:label="amazon"><g
         id="g3"
         style="fill:#ffffff">
	<path
   class="st2"
   d="m 306,500.1 c -1.3,0 -2.6,0.3 -3.8,0.9 -1.4,0.6 -2.8,1.2 -4.1,1.7 l -1.9,0.8 -2.5,1 v 0 c -27.5,11.1 -56.3,17.7 -83,18.2 -1,0 -2,0 -2.9,0 -42,0 -76.2,-19.5 -110.8,-38.6 -1.2,-0.6 -2.4,-1 -3.6,-1 -1.6,0 -3.1,0.6 -4.3,1.7 -1.2,1.1 -1.9,2.7 -1.8,4.3 0,2.1 1.1,4 2.7,5.3 32.4,28.2 68,54.3 115.8,54.4 0.9,0 1.9,0 2.8,0 30.4,-0.7 64.8,-11 91.5,-27.7 l 0.2,-0.1 c 3.5,-2.1 7,-4.5 10.3,-7.1 2,-1.5 3.5,-3.9 3.5,-6.4 -0.4,-4.4 -4.1,-7.4 -8.1,-7.4 z"
   id="path1-9"
   style="fill:#ffffff" />
	<path
   class="st2"
   d="m 343,484.6 v 0 c -0.1,-2.7 -0.7,-4.7 -1.8,-6.4 l -0.1,-0.2 -0.1,-0.2 c -1.1,-1.2 -2.2,-1.7 -3.4,-2.2 -3.5,-1.3 -8.6,-2.1 -14.7,-2.1 -4.4,0 -9.3,0.4 -14.2,1.5 v -0.3 l -4.9,1.6 h -0.1 l -2.8,0.9 v 0.1 c -3.3,1.4 -6.2,3 -9,5 -1.7,1.3 -3.1,3 -3.2,5.6 0,1.4 0.7,3 1.9,4 1.2,1 2.6,1.3 3.8,1.3 0.3,0 0.6,0 0.8,-0.1 h 0.2 0.2 c 2.4,-0.5 5.9,-0.8 10,-1.4 3.5,-0.4 7.3,-0.7 10.5,-0.7 2.3,0 4.4,0.1 5.8,0.5 0.7,0.1 1.2,0.3 1.5,0.5 0.1,0 0.2,0.1 0.2,0.1 0.1,0.2 0.1,0.7 0.1,1.4 0,2.7 -1.1,7.7 -2.7,12.6 -1.5,4.9 -3.4,9.8 -4.6,13.1 -0.3,0.8 -0.5,1.6 -0.5,2.5 0,1.3 0.5,2.9 1.6,4 1.1,1.1 2.6,1.5 3.8,1.5 h 0.1 c 1.8,0 3.4,-0.7 4.7,-1.8 12.5,-11.2 16.8,-29.2 17,-39.3 z"
   id="path2"
   style="fill:#ffffff" />
	<path
   class="st2"
   d="m 228.7,364.1 c -7.3,0.6 -15.8,1.1 -24.3,2.2 -13,1.7 -26,4 -36.7,9.1 -20.9,8.5 -35,26.5 -35,53.1 0,33.3 21.5,50.3 48.6,50.3 9,0 16.4,-1.1 23.1,-2.8 10.8,-3.4 19.8,-9.6 30.5,-20.9 6.2,8.5 7.9,12.4 18.6,21.5 2.8,1.1 5.7,1.1 7.9,-0.6 6.8,-5.7 18.7,-15.8 24.9,-21.5 2.8,-2.3 2.3,-5.7 0.6,-8.5 -6.2,-7.9 -12.4,-14.7 -12.4,-30 v -50.8 c 0,-21.5 1.7,-41.2 -14.1,-55.9 -13,-11.9 -33.3,-16.4 -49.2,-16.4 h -6.8 c -28.8,1.7 -59.3,14.1 -66.1,49.7 -1.1,4.5 2.3,6.2 4.5,6.8 l 31.6,4 c 3.4,-0.6 5.1,-3.4 5.6,-6.2 2.8,-12.4 13,-18.7 24.3,-19.8 h 2.3 c 6.8,0 14.1,2.8 18.1,8.5 4.5,6.8 4,15.8 4,23.7 z m -6.2,67.2 c -4,7.9 -10.7,13 -18.1,14.7 -1.1,0 -2.8,0.6 -4.5,0.6 -12.4,0 -19.8,-9.6 -19.8,-23.7 0,-18.1 10.7,-26.6 24.3,-30.5 7.3,-1.7 15.8,-2.3 24.3,-2.3 v 6.8 c 0,13 0.6,23.1 -6.2,34.4 z"
   id="path3"
   style="fill:#ffffff" />
</g></g><g
       style="fill:#ffffff"
       id="g2"
       transform="matrix(1.7545065,0,0,1.7545065,78.264431,109.98057)"
       inkscape:label="apple"><path
         fill-rule="evenodd"
         clip-rule="evenodd"
         d="m 15.9389,0.18598 c 0.5313,-0.083572 1.0336,0.268117 1.1368,0.795995 0.1968,1.331565 0.2507,2.721225 -0.1794,4.016205 0.336,0.0376 0.6907,0.11749 1.0647,0.25091 1.7045,0.60809 2.7158,1.97379 3.2883,3.3623 0.1357,0.32904 0.0862,0.70538 -0.1298,0.98821 -0.2161,0.28283 -0.5662,0.4295 -0.9193,0.38516 C 18.8395,9.81385 18,11.2888 18,12.4723 c 0,1.194 0.8616,2.6855 2.2343,2.4828 0.347,-0.0512 0.6955,0.0832 0.9183,0.3541 0.2229,0.2709 0.2875,0.6387 0.1702,0.9694 -0.9186,2.5911 -2.7105,5.0905 -4.8097,6.3453 -0.6265,0.3744 -1.2512,0.4125 -1.8203,0.2757 -0.4645,-0.1117 -0.8874,-0.3389 -1.3032,-0.5671 -0.5911,-0.3238 -0.9715,-0.511 -1.3896,-0.511 -0.4181,0 -0.7985,0.1872 -1.3896,0.511 -0.4158,0.2282 -0.83867,0.4554 -1.30324,0.5671 C 8.73813,23.0364 8.11336,22.9983 7.48692,22.6239 5.94833,21.7042 4.58791,20.1238 3.61563,18.3615 2.64111,16.5951 2,14.5441 2,12.6156 2,11.4859 2.18364,9.98182 2.75469,8.60172 3.3278,7.21662 4.33844,5.85577 6.03899,5.24909 8.01136,4.54543 9.44668,5.33051 10.4392,5.95795 10.452,5.00574 10.6115,3.69261 11.3364,2.6573 12.34,1.22403 14.2513,0.452307 15.9389,0.18598 Z M 6.71101,7.13281 C 7.86767,6.72016 8.60885,7.15971 9.62114,7.80866 10.3434,8.27332 11.1111,8.74136 12,8.74136 c 0.8889,0 1.6566,-0.46805 2.3789,-0.9327 1.0122,-0.64894 1.7534,-1.08849 2.9101,-0.67585 0.5845,0.20854 1.06,0.57751 1.4424,1.06472 C 17.0785,8.80977 16,10.5855 16,12.4723 c 0,1.9627 1.167,3.8052 2.9336,4.3429 C 18.0714,18.5969 16,20.7925 15.4869,20.9072 15.0892,20.9961 14.6435,20.739 14.3506,20.5786 13.6174,20.1761 12.8553,19.8215 12,19.8215 c -0.9724,0 -1.7677,0.4369 -2.29433,0.7262 -0.31172,0.1711 -0.8223,0.5808 -1.19259,0.3595 C 7.36157,20.2189 6.22198,18.9454 5.36679,17.3954 4.51384,15.8493 4,14.1294 4,12.6156 4,11.6677 4.1588,10.4393 4.60273,9.36639 5.04459,8.2985 5.72146,7.48584 6.71101,7.13281 Z M 14.6893,5.005 C 14.1791,5.73362 13.2659,6.12202 12.4439,6.38708 12.4119,5.52406 12.4645,4.53307 12.9747,3.80445 13.4849,3.07582 14.3981,2.68742 15.22,2.42236 15.2521,3.28539 15.1995,4.27637 14.6893,5.005 Z"
         fill="#000000"
         id="path1-0"
         style="fill:#ffffff" /></g><g
       style="fill:#000000;stroke:#ffffff"
       id="g4"
       transform="matrix(2,0,0,2,111.08747,174.16748)"
       inkscape:label="disney"><path
         id="primary"
         d="m 19,3 v 4 m 2,-2 h -4 m -10.31,4 2,12"
         style="fill:none;stroke:#ffffff;stroke-width:2;stroke-linecap:round;stroke-linejoin:round" /><path
         id="primary-2"
         data-name="primary"
         d="M 3,6 C 3,6 15.29,4 16.91,12.77 18,18.7 10.33,19.47 7.43,18.66 4.53,17.85 3,16.06 3,14.06 3,11 8.54,9.45 12,12"
         style="fill:none;stroke:#ffffff;stroke-width:2;stroke-linecap:round;stroke-linejoin:round" /></g><g
       style="fill:none;stroke:#ffffff"
       id="g5"
       transform="matrix(0.25,0,0,0.25,143.37984,107.59684)"
       inkscape:label="espn"><path
         stroke="#000000"
         stroke-width="12"
         d="M 30.409,85.034 21.738,163.34 A 6,6 0 0 0 27.7,170 h 120.427 a 6,6 0 0 0 5.963,-5.34 l 2.838,-25.627 a 6,6 0 0 0 -5.963,-6.66 h -65.55 c -3.65,0 -6.455,-3.232 -5.94,-6.846 l 0.791,-5.559 a 6,6 0 0 1 5.94,-5.154 h 68.033 a 6,6 0 0 0 5.963,-5.34 l 2.56,-23.119 a 6,6 0 0 0 -5.963,-6.66 H 36.372 a 6,6 0 0 0 -5.963,5.34 z M 164.211,22 H 43.803 a 6,6 0 0 0 -5.954,5.263 L 34.502,54.29 a 6,6 0 0 0 5.954,6.737 h 120.409 a 6,6 0 0 0 5.954,-5.263 l 3.346,-27.027 A 6,6 0 0 0 164.211,22 Z"
         id="path1-2"
         style="stroke:#ffffff" /></g><g
       style="fill:#ffffff"
       id="g6"
       transform="matrix(1.6666602,0,0,1.6666602,145.90476,237.24286)"
       inkscape:label="hbo"><path
         d="M 7.042,16.896 H 4.414 V 13.142 H 2.708 v 3.754 H 0.01 L 0,7.22 h 2.708 v 3.6 h 1.706 v -3.6 h 2.628 z m 12.043,0.046 C 21.795,16.94 24,14.689 24,11.978 A 4.89,4.89 0 0 0 19.085,7.058 C 16.378,7.056 14.995,9.049 14.653,9.853 14.656,8.646 13.466,7.221 12.073,7.219 H 7.59 v 9.674 l 4.181,10e-4 c 1.686,0 2.886,-1.46 2.888,-2.713 0.385,0.788 1.72,2.762 4.427,2.76 z M 11.42,13.006 c 0.387,0 0.692,0.382 0.692,0.817 0,0.435 -0.305,0.817 -0.692,0.817 h -1.33 v -1.634 z m 0.005,-3.633 c 0.387,0 0.692,0.382 0.692,0.817 0,0.436 -0.305,0.818 -0.692,0.818 h -1.33 V 9.373 Z m 1.77,2.607 c 0.305,-0.039 0.813,-0.387 0.992,-0.61 -0.063,0.276 -0.068,1.074 0.006,1.35 -0.204,-0.314 -0.688,-0.701 -0.998,-0.74 z m 3.43,0 a 2.462,2.462 0 1 1 4.924,0 2.4625,2.4625 0 0 1 -4.925,0 z m 2.462,1.936 a 1.936,1.936 0 1 0 0,-3.872 1.936,1.936 0 0 0 0,3.872 z"
         id="path1-8"
         style="fill:#ffffff" /></g><g
       style="fill:#ffffff"
       id="g7"
       transform="matrix(1.2467662,0,0,1.2467662,184.11993,174.90612)"
       inkscape:label="hulu"><path
         d="M 19.197,9.807 H 14.39 c -0.943,0.016 -1.875,0.199 -2.751,0.543 V -0.041 H 3.92 v 32.083 h 7.729 V 19.361 c -0.067,-1.204 0.876,-2.229 2.084,-2.267 h 4.52 c 1.152,0 2.095,0.923 2.12,2.079 V 31.96 h 7.704 V 18.053 c 0,-5.88 -3,-8.213 -7.865,-8.213 z"
         id="path1-4"
         style="fill:#ffffff" /></g><g
       style="fill:none;stroke:#ffffff"
       id="g8"
       transform="matrix(0.25,0,0,0.25,75.580714,233.9204)"
       inkscape:label="netflix"><path
         stroke="#000000"
         stroke-linejoin="round"
         stroke-width="12"
         d="m 82,96 v 70 a 4,4 0 0 1 -4,4 H 54 a 4,4 0 0 1 -4,-4 V 26 a 4,4 0 0 1 4,-4 h 12"
         id="path1-1"
         style="stroke:#ffffff" /><path
         stroke="#000000"
         stroke-linejoin="round"
         stroke-width="12"
         d="M 79.372,22 H 56.088 c -2.878,0 -4.814,2.947 -3.672,5.588 l 60.541,140 a 4,4 0 0 0 3.671,2.412 h 23.284 c 2.878,0 4.814,-2.947 3.672,-5.588 l -60.54,-140 A 4,4 0 0 0 79.371,22 Z"
         id="path2-7"
         style="stroke:#ffffff" /><path
         stroke="#000000"
         stroke-linejoin="round"
         stroke-width="12"
         d="M 114,96 V 26 a 4,4 0 0 1 4,-4 h 24 a 4,4 0 0 1 4,4 v 140 a 4,4 0 0 1 -4,4 h -12"
         id="path3-1"
         style="stroke:#ffffff" /></g><g
       style="fill:#ffffff"
       id="g9"
       transform="matrix(1.6666667,0,0,1.6666667,115.83361,293.84647)"
       inkscape:label="yt"><path
         fill-rule="evenodd"
         clip-rule="evenodd"
         d="M 9.49614,7.13176 C 9.18664,6.9549 8.80639,6.95617 8.49807,7.13509 8.18976,7.31401 8,7.64353 8,8 v 8 c 0,0.3565 0.18976,0.686 0.49807,0.8649 0.30832,0.1789 0.68857,0.1802 0.99807,0.0033 l 6.99996,-4 C 16.8077,12.6902 17,12.3589 17,12 17,11.6411 16.8077,11.3098 16.4961,11.1318 Z M 13.9844,12 10,14.2768 V 9.72318 Z"
         fill="#0f0f0f"
         id="path1-43"
         style="fill:#ffffff" /><path
         fill-rule="evenodd"
         clip-rule="evenodd"
         d="M 0,12 C 0,8.25027 0,6.3754 0.954915,5.06107 1.26331,4.6366 1.6366,4.26331 2.06107,3.95491 3.3754,3 5.25027,3 9,3 h 6 c 3.7497,0 5.6246,0 6.9389,0.95491 0.4245,0.3084 0.7978,0.68169 1.1062,1.10616 C 24,6.3754 24,8.25027 24,12 c 0,3.7497 0,5.6246 -0.9549,6.9389 -0.3084,0.4245 -0.6817,0.7978 -1.1062,1.1062 C 20.6246,21 18.7497,21 15,21 H 9 C 5.25027,21 3.3754,21 2.06107,20.0451 1.6366,19.7367 1.26331,19.3634 0.954915,18.9389 0,17.6246 0,15.7497 0,12 Z M 9,5 h 6 c 1.9194,0 3.1983,0.00275 4.1673,0.10773 0.9316,0.10093 1.3367,0.27675 1.5961,0.46522 0.2546,0.18504 0.4786,0.40901 0.6637,0.66369 0.1884,0.25941 0.3642,0.66449 0.4652,1.59605 C 21.9973,8.80167 22,10.0806 22,12 c 0,1.9194 -0.0027,3.1983 -0.1077,4.1673 -0.101,0.9316 -0.2768,1.3367 -0.4652,1.5961 -0.1851,0.2546 -0.4091,0.4786 -0.6637,0.6637 -0.2594,0.1884 -0.6645,0.3642 -1.5961,0.4652 C 18.1983,18.9973 16.9194,19 15,19 H 9 C 7.08058,19 5.80167,18.9973 4.83269,18.8923 3.90113,18.7913 3.49605,18.6155 3.23664,18.4271 2.98196,18.242 2.75799,18.018 2.57295,17.7634 2.38448,17.504 2.20866,17.0989 2.10773,16.1673 2.00275,15.1983 2,13.9194 2,12 2,10.0806 2.00275,8.80167 2.10773,7.83269 2.20866,6.90113 2.38448,6.49605 2.57295,6.23664 2.75799,5.98196 2.98196,5.75799 3.23664,5.57295 3.49605,5.38448 3.90113,5.20866 4.83269,5.10773 5.80167,5.00275 7.08058,5 9,5 Z"
         fill="#0f0f0f"
         id="path2-75"
         style="fill:#ffffff" /></g></g><style
     type="text/css"
     id="style1">
	.st0{display:none;}
	.st1{display:inline;}
	.st2{fill-rule:evenodd;clip-rule:evenodd;}
</style></svg>
